<svg width="400" height="120" viewBox="0 0 400 120" xmlns="http://www.w3.org/2000/svg">
  <!-- Logo símbolo com mãos coloridas -->
  <g transform="translate(20, 10)">
    <!-- Mão verde superior esquerda -->
    <circle cx="30" cy="25" r="15" fill="#28a745" opacity="0.9"/>
    <rect x="25" y="15" width="3" height="8" fill="white" rx="1"/>
    <rect x="29" y="12" width="3" height="10" fill="white" rx="1"/>
    <rect x="33" y="15" width="3" height="8" fill="white" rx="1"/>
    <rect x="37" y="18" width="3" height="6" fill="white" rx="1"/>
    
    <!-- Mão amarela direita -->
    <circle cx="65" cy="30" r="15" fill="#ffc107" opacity="0.9"/>
    <rect x="60" y="20" width="3" height="8" fill="white" rx="1"/>
    <rect x="64" y="17" width="3" height="10" fill="white" rx="1"/>
    <rect x="68" y="20" width="3" height="8" fill="white" rx="1"/>
    <rect x="72" y="23" width="3" height="6" fill="white" rx="1"/>
    
    <!-- Mão azul inferior -->
    <circle cx="45" cy="55" r="15" fill="#007bff" opacity="0.9"/>
    <rect x="40" y="45" width="3" height="8" fill="white" rx="1"/>
    <rect x="44" y="42" width="3" height="10" fill="white" rx="1"/>
    <rect x="48" y="45" width="3" height="8" fill="white" rx="1"/>
    <rect x="52" y="48" width="3" height="6" fill="white" rx="1"/>
    
    <!-- Mão verde inferior esquerda -->
    <circle cx="20" cy="65" r="12" fill="#28a745" opacity="0.8"/>
    <rect x="16" y="58" width="2" height="6" fill="white" rx="1"/>
    <rect x="19" y="56" width="2" height="8" fill="white" rx="1"/>
    <rect x="22" y="58" width="2" height="6" fill="white" rx="1"/>
    <rect x="25" y="60" width="2" height="5" fill="white" rx="1"/>
    
    <!-- Mão amarela inferior direita -->
    <circle cx="70" cy="65" r="12" fill="#ffc107" opacity="0.8"/>
    <rect x="66" y="58" width="2" height="6" fill="white" rx="1"/>
    <rect x="69" y="56" width="2" height="8" fill="white" rx="1"/>
    <rect x="72" y="58" width="2" height="6" fill="white" rx="1"/>
    <rect x="75" y="60" width="2" height="5" fill="white" rx="1"/>
  </g>
  
  <!-- Texto FGM -->
  <g transform="translate(120, 20)">
    <!-- F -->
    <rect x="0" y="0" width="35" height="10" fill="#007bff"/>
    <rect x="0" y="0" width="10" height="70" fill="#007bff"/>
    <rect x="0" y="30" width="25" height="10" fill="#007bff"/>
    
    <!-- G -->
    <path d="M50 0 L85 0 L85 10 L60 10 L60 30 L75 30 L75 40 L60 40 L60 60 L85 60 L85 70 L50 70 L50 0" fill="#007bff"/>
    <rect x="75" y="35" width="10" height="15" fill="#007bff"/>
    
    <!-- M -->
    <rect x="100" y="0" width="10" height="70" fill="#007bff"/>
    <rect x="140" y="0" width="10" height="70" fill="#007bff"/>
    <polygon points="110,0 110,10 120,25 130,10 130,0 125,0 125,15 120,20 115,15 115,0" fill="#007bff"/>
  </g>
  
  <!-- Subtítulo -->
  <text x="120" y="95" font-family="Arial, sans-serif" font-size="12" fill="#007bff" font-weight="normal">
    Formação, Gestão e Métodos
  </text>
</svg>
